HIERARCHY
ROOT Hips
{
	OFFSET 0.000000 0.000000 0.000000
	CHANNELS 6 Xposition Yposition Zposition Zrotation Yrotation Xrotation 
	JOINT LHipJoint
	{
		OFFSET 0.000000 0.000000 0.000000
		CHANNELS 3 Zrotation Yrotation Xrotation
		JOINT LeftUpLeg
		{
			OFFSET 1.363060 -1.794630 0.839290
			CHANNELS 3 Zrotation Yrotation Xrotation
			JOINT LeftLeg
			{
				OFFSET 2.448110 -6.726130 0.000000
				CHANNELS 3 Zrotation Yrotation Xrotation
				JOINT LeftFoot
				{
					OFFSET 2.562200 -7.039590 0.000000
					CHANNELS 3 Zrotation Yrotation Xrotation
					JOINT LeftToeBase
					{
						OFFSET 0.157640 -0.433110 2.322550
						CHANNELS 3 Zrotation Yrotation Xrotation
						End Site
						{
							OFFSET 0.000000 0.000000 0.000000
						}
					}
				}
			}
		}
	}
	JOINT RHipJoint
	{
		OFFSET 0.000000 0.000000 0.000000
		CHANNELS 3 Zrotation Yrotation Xrotation
		JOINT RightUpLeg
		{
			OFFSET -1.305520 -1.794630 0.839290
			CHANNELS 3 Zrotation Yrotation Xrotation
			JOINT RightLeg
			{
				OFFSET -2.542530 -6.985550 0.000000
				CHANNELS 3 Zrotation Yrotation Xrotation
				JOINT RightFoot
				{
					OFFSET -2.568260 -7.056230 0.000000
					CHANNELS 3 Zrotation Yrotation Xrotation
					JOINT RightToeBase
					{
						OFFSET -0.164730 -0.452590 2.363150
						CHANNELS 3 Zrotation Yrotation Xrotation
						End Site
						{
							OFFSET 0.000000 0.000000 0.000000
						}
					}
				}
			}
		}
	}
	JOINT LowerBack
	{
		OFFSET 0.000000 0.000000 0.000000
		CHANNELS 3 Zrotation Yrotation Xrotation
		JOINT Spine
		{
			OFFSET 0.028270 2.035590 -0.193380
			CHANNELS 3 Zrotation Yrotation Xrotation
			JOINT Spine1
			{
				OFFSET 0.056720 2.048850 -0.042750
				CHANNELS 3 Zrotation Yrotation Xrotation
				JOINT Neck
				{
					OFFSET 0.000000 0.000000 0.000000
					CHANNELS 3 Zrotation Yrotation Xrotation
					JOINT Neck1
					{
						OFFSET -0.054170 1.746240 0.172020
						CHANNELS 3 Zrotation Yrotation Xrotation
						JOINT Head
						{
							OFFSET 0.104070 1.761360 -0.123970
							CHANNELS 3 Zrotation Yrotation Xrotation
							End Site
							{
								OFFSET 0.000000 0.000000 0.000000
							}
						}
					}
				}
				JOINT LeftShoulder
				{
					OFFSET 0.000000 0.000000 0.000000
					CHANNELS 3 Zrotation Yrotation Xrotation
					JOINT LeftArm
					{
						OFFSET 3.362410 1.200890 -0.311210
						CHANNELS 3 Zrotation Yrotation Xrotation
						JOINT LeftForeArm
						{
							OFFSET 4.983000 -0.000000 -0.000000
							CHANNELS 3 Zrotation Yrotation Xrotation
							JOINT LeftHand
							{
								OFFSET 3.483560 -0.000000 -0.000000
								CHANNELS 3 Zrotation Yrotation Xrotation
								JOINT LeftFingerBase
								{
									OFFSET 0.000000 0.000000 0.000000
									CHANNELS 3 Zrotation Yrotation Xrotation
									JOINT LeftHandIndex1
									{
										OFFSET 0.715260 -0.000000 -0.000000
										CHANNELS 3 Zrotation Yrotation Xrotation
										End Site
										{
											OFFSET 0.000000 0.000000 0.000000
										}
									}
								}
								JOINT LThumb
								{
									OFFSET 0.000000 0.000000 0.000000
									CHANNELS 3 Zrotation Yrotation Xrotation
									End Site
									{
										OFFSET 0.000000 0.000000 0.000000
									}
								}
							}
						}
					}
				}
				JOINT RightShoulder
				{
					OFFSET 0.000000 0.000000 0.000000
					CHANNELS 3 Zrotation Yrotation Xrotation
					JOINT RightArm
					{
						OFFSET -3.136600 1.374050 -0.404650
						CHANNELS 3 Zrotation Yrotation Xrotation
						JOINT RightForeArm
						{
							OFFSET -5.241900 -0.000000 -0.000000
							CHANNELS 3 Zrotation Yrotation Xrotation
							JOINT RightHand
							{
								OFFSET -3.444170 -0.000000 -0.000000
								CHANNELS 3 Zrotation Yrotation Xrotation
								JOINT RightFingerBase
								{
									OFFSET 0.000000 0.000000 0.000000
									CHANNELS 3 Zrotation Yrotation Xrotation
									JOINT RightHandIndex1
									{
										OFFSET -0.622530 -0.000000 -0.000000
										CHANNELS 3 Zrotation Yrotation Xrotation
										End Site
										{
											OFFSET 0.000000 0.000000 0.000000
										}
									}
								}
								JOINT RThumb
								{
									OFFSET 0.000000 0.000000 0.000000
									CHANNELS 3 Zrotation Yrotation Xrotation
									End Site
									{
										OFFSET 0.000000 0.000000 0.000000
									}
								}
							}
						}
					}
				}
			}
		}
	}
}
MOTION
Frames: 5
Frame Time: 0.008333
-4.969734 17.601154 18.645132 -163.068985 -60.078286 179.167389 0.649390 -1.067636 -2.075222 3.518579 -15.623208 -30.334304 2.858621 13.518396 36.427750 3.251383 -3.745078 0.896260 1.291600 -7.201000 -20.312300 0.882315 -0.476471 -0.110128 10.215560 17.953446 -21.782166 -1.595230 -10.912173 30.100509 6.736486 -19.113084 -1.589204 -0.788700 5.669200 -15.827600 0.811989 7.083240 -2.681838 -3.555286 8.583080 -8.090670 -5.416800 4.526558 -3.167726 -14.944455 -10.213545 -17.126392 12.329544 -14.446355 20.093105 6.508900 -7.339300 15.745300 -4.117807 -8.272606 0.615224 -51.728509 19.620087 -22.855468 17.439502 -23.473198 -5.043110 -1.964037 0.254805 -28.769414 45.799227 -24.452265 -24.981300 -7.125000 0.000000 0.000000 10.297900 -4.531300 -11.256600 2.429254 9.587203 5.102952 16.056692 4.092909 -3.189318 -43.999570 42.630872 -21.950979 0.846770 0.364451 16.873579 -43.914816 -43.148005 34.104800 7.125000 0.000000 0.000000 -22.070100 -82.434600 19.057200 
-5.012649 17.590000 18.651718 -163.149039 -58.738139 179.156705 0.628714 -0.996725 -2.000962 3.396908 -15.140306 -29.786137 2.948291 13.527601 36.645538 2.538251 -1.850796 -0.068318 1.410700 -7.512300 -21.242400 0.897879 -0.526564 -0.098036 10.292648 18.111852 -21.702518 -1.549411 -10.878836 29.982868 6.687816 -18.984678 -1.782443 -0.817500 5.769300 -16.116600 1.694521 7.308424 -2.696330 -3.401064 8.852548 -8.114041 -5.600676 4.643486 -3.158145 -14.664531 -10.311862 -16.765010 12.314518 -14.746324 19.896713 6.408700 -7.461900 15.574600 -4.093785 -8.218279 0.626633 -51.244146 20.187127 -23.652022 17.416198 -23.517489 -5.042123 -1.993408 0.202636 -29.377597 45.946770 -24.030060 -24.762100 -7.125000 0.000000 0.000000 10.519800 -4.069800 -11.428600 2.422338 9.554832 5.095003 16.086542 4.164642 -2.973664 -43.519710 42.386941 -21.563566 0.874161 0.385758 16.547163 -43.318328 -43.227523 33.620800 7.125000 0.000000 0.000000 -19.655800 -82.359000 16.928500 
-5.054926 17.586601 18.664996 -163.952180 -57.529906 179.771418 0.528097 -0.938087 -1.910647 2.941430 -14.851215 -29.180376 2.942636 13.460179 36.646903 2.020031 -0.556964 -0.561533 1.434800 -7.573500 -21.425900 0.913609 -0.562517 -0.108569 9.981022 18.089448 -21.642796 -1.543280 -10.870246 29.870509 6.918581 -19.499032 -1.893303 -0.955300 6.224100 -17.436000 2.210641 7.397065 -2.681132 -3.264425 8.946715 -8.100908 -5.653578 4.687578 -3.172767 -14.625985 -10.394690 -16.429488 12.298474 -14.952470 19.749814 6.360500 -7.571000 15.448400 -4.057749 -8.168641 0.623629 -50.996917 20.897702 -24.720267 17.447199 -23.625431 -5.059708 -2.008854 0.151532 -30.082083 45.980876 -23.779138 -24.579600 -7.125000 0.000000 0.000000 10.625500 -3.755800 -11.492900 2.411537 9.528764 5.074008 15.937339 4.444686 -2.591015 -42.981102 42.115677 -21.154741 0.894209 0.370099 16.270014 -44.294579 -42.610898 34.226900 7.125000 0.000000 0.000000 -23.807600 -81.986400 20.369500 
-5.093380 17.588938 18.674769 -164.683804 -56.397281 -179.788848 0.415107 -0.871261 -1.814367 2.507426 -14.672980 -28.493848 2.923974 13.380282 36.606458 1.414705 0.904189 -1.040251 1.511900 -7.765300 -22.003500 0.948386 -0.613886 -0.114443 9.696848 18.360789 -21.360212 -1.535298 -10.846273 29.744992 7.167689 -20.048268 -2.078810 -1.110500 6.695100 -18.815100 2.644614 7.456640 -2.534503 -3.098847 9.015185 -8.038242 -5.643263 4.729205 -3.194522 -14.591748 -10.501874 -16.225451 12.130597 -15.183255 19.771050 6.227000 -7.693700 15.435400 -4.014218 -8.128769 0.618919 -50.802267 21.550658 -25.701694 17.532445 -23.789789 -5.105022 -2.022786 0.099750 -30.748806 46.161115 -23.524955 -24.501900 -7.125000 0.000000 0.000000 10.814700 -3.499700 -11.659200 2.404614 9.512282 5.048488 15.846382 4.758694 -2.415843 -42.531762 41.885043 -20.826157 0.916397 0.354956 16.229914 -45.458861 -42.321601 35.173900 7.125000 0.000000 0.000000 -28.688000 -81.971500 24.598100 
-5.130346 17.595949 18.694846 -165.236485 -55.371020 -179.492207 0.289222 -0.814735 -1.727342 2.198307 -14.805802 -27.749679 2.881169 13.276736 36.463816 0.674854 2.643529 -1.587923 1.590500 -7.955300 -22.578500 0.975798 -0.664119 -0.118442 9.405591 18.869631 -21.045052 -1.501952 -10.815246 29.660590 7.126183 -19.914453 -2.446649 -1.189800 6.921900 -19.484100 3.118210 7.481783 -2.362471 -2.839206 9.041968 -7.932111 -5.513727 4.763459 -3.180426 -14.813905 -10.614544 -16.086654 12.033850 -15.357275 19.807432 6.185900 -7.811100 15.483100 -3.951650 -8.079232 0.601632 -50.432880 22.377123 -25.748281 17.580077 -23.914698 -5.131913 -2.057964 0.017510 -32.096948 46.371494 -23.236290 -24.432500 -7.125000 0.000000 0.000000 11.041600 -3.224000 -11.862600 2.393339 9.480386 5.021959 15.547633 5.041299 -2.248541 -42.191891 41.724348 -20.585603 0.946469 0.377668 16.104234 -45.491503 -42.650644 35.400500 7.125000 0.000000 0.000000 -29.212700 -82.331800 25.252100 
